<mxfile host="app.diagrams.net" modified="2021-09-17T17:16:04.343Z" agent="5.0 (Windows NT 10.0; Win64; x64) AppleWebKit/537.36 (KHTML, like Gecko) Chrome/93.0.4577.82 Safari/537.36" etag="Qpp3hzHXIyYAmGmNILkv" version="15.2.9" type="github">
  <diagram id="C5RBs43oDa-KdzZeNtuy" name="Page-1">
    <mxGraphModel dx="1021" dy="541" grid="1" gridSize="10" guides="1" tooltips="1" connect="1" arrows="1" fold="1" page="1" pageScale="1" pageWidth="827" pageHeight="1169" math="0" shadow="0">
      <root>
        <mxCell id="WIyWlLk6GJQsqaUBKTNV-0" />
        <mxCell id="WIyWlLk6GJQsqaUBKTNV-1" parent="WIyWlLk6GJQsqaUBKTNV-0" />
        <mxCell id="zkfFHV4jXpPFQw0GAbJ--0" value="Modules" style="swimlane;fontStyle=0;align=center;verticalAlign=top;childLayout=stackLayout;horizontal=1;startSize=26;horizontalStack=0;resizeParent=1;resizeLast=0;collapsible=1;marginBottom=0;rounded=0;shadow=0;strokeWidth=1;" parent="WIyWlLk6GJQsqaUBKTNV-1" vertex="1">
          <mxGeometry x="430" y="250" width="80" height="90" as="geometry">
            <mxRectangle x="230" y="140" width="160" height="26" as="alternateBounds" />
          </mxGeometry>
        </mxCell>
        <mxCell id="0geA4pOl09aKW1OKMu0l-8" value="id: serial" style="text;html=1;align=center;verticalAlign=middle;resizable=0;points=[];autosize=1;strokeColor=none;fillColor=none;" vertex="1" parent="zkfFHV4jXpPFQw0GAbJ--0">
          <mxGeometry y="26" width="80" height="20" as="geometry" />
        </mxCell>
        <mxCell id="0geA4pOl09aKW1OKMu0l-11" value="name: varchar" style="text;html=1;align=center;verticalAlign=middle;resizable=0;points=[];autosize=1;strokeColor=none;fillColor=none;" vertex="1" parent="zkfFHV4jXpPFQw0GAbJ--0">
          <mxGeometry y="46" width="80" height="20" as="geometry" />
        </mxCell>
        <mxCell id="0geA4pOl09aKW1OKMu0l-12" value="PSB_id:int" style="text;html=1;align=center;verticalAlign=middle;resizable=0;points=[];autosize=1;strokeColor=none;fillColor=none;" vertex="1" parent="zkfFHV4jXpPFQw0GAbJ--0">
          <mxGeometry y="66" width="80" height="20" as="geometry" />
        </mxCell>
        <mxCell id="zkfFHV4jXpPFQw0GAbJ--6" value="Component" style="swimlane;fontStyle=0;align=center;verticalAlign=top;childLayout=stackLayout;horizontal=1;startSize=26;horizontalStack=0;resizeParent=1;resizeLast=0;collapsible=1;marginBottom=0;rounded=0;shadow=0;strokeWidth=1;" parent="WIyWlLk6GJQsqaUBKTNV-1" vertex="1">
          <mxGeometry x="100" y="250" width="100" height="86" as="geometry">
            <mxRectangle x="130" y="380" width="160" height="26" as="alternateBounds" />
          </mxGeometry>
        </mxCell>
        <mxCell id="0geA4pOl09aKW1OKMu0l-16" value="id: serial" style="text;html=1;align=center;verticalAlign=middle;resizable=0;points=[];autosize=1;strokeColor=none;fillColor=none;" vertex="1" parent="zkfFHV4jXpPFQw0GAbJ--6">
          <mxGeometry y="26" width="100" height="20" as="geometry" />
        </mxCell>
        <mxCell id="0geA4pOl09aKW1OKMu0l-21" value="name: varchar" style="text;html=1;align=center;verticalAlign=middle;resizable=0;points=[];autosize=1;strokeColor=none;fillColor=none;" vertex="1" parent="zkfFHV4jXpPFQw0GAbJ--6">
          <mxGeometry y="46" width="100" height="20" as="geometry" />
        </mxCell>
        <mxCell id="0geA4pOl09aKW1OKMu0l-24" value="Technology_id:int" style="text;html=1;align=center;verticalAlign=middle;resizable=0;points=[];autosize=1;strokeColor=none;fillColor=none;" vertex="1" parent="zkfFHV4jXpPFQw0GAbJ--6">
          <mxGeometry y="66" width="100" height="20" as="geometry" />
        </mxCell>
        <mxCell id="zkfFHV4jXpPFQw0GAbJ--17" value="PSB" style="swimlane;fontStyle=0;align=center;verticalAlign=top;childLayout=stackLayout;horizontal=1;startSize=26;horizontalStack=0;resizeParent=1;resizeLast=0;collapsible=1;marginBottom=0;rounded=0;shadow=0;strokeWidth=1;" parent="WIyWlLk6GJQsqaUBKTNV-1" vertex="1">
          <mxGeometry x="670" y="250" width="89" height="90" as="geometry">
            <mxRectangle x="550" y="140" width="160" height="26" as="alternateBounds" />
          </mxGeometry>
        </mxCell>
        <mxCell id="0geA4pOl09aKW1OKMu0l-5" value="id: serial" style="text;html=1;align=center;verticalAlign=middle;resizable=0;points=[];autosize=1;strokeColor=none;fillColor=none;" vertex="1" parent="zkfFHV4jXpPFQw0GAbJ--17">
          <mxGeometry y="26" width="89" height="20" as="geometry" />
        </mxCell>
        <mxCell id="0geA4pOl09aKW1OKMu0l-6" value="name:varchar" style="text;html=1;align=center;verticalAlign=middle;resizable=0;points=[];autosize=1;strokeColor=none;fillColor=none;" vertex="1" parent="zkfFHV4jXpPFQw0GAbJ--17">
          <mxGeometry y="46" width="89" height="20" as="geometry" />
        </mxCell>
        <mxCell id="0geA4pOl09aKW1OKMu0l-7" value="Modules_id:int" style="text;html=1;align=center;verticalAlign=middle;resizable=0;points=[];autosize=1;strokeColor=none;fillColor=none;" vertex="1" parent="zkfFHV4jXpPFQw0GAbJ--17">
          <mxGeometry y="66" width="89" height="20" as="geometry" />
        </mxCell>
        <mxCell id="0geA4pOl09aKW1OKMu0l-2" value="Technologes" style="swimlane;fontStyle=0;align=center;verticalAlign=top;childLayout=stackLayout;horizontal=1;startSize=26;horizontalStack=0;resizeParent=1;resizeLast=0;collapsible=1;marginBottom=0;rounded=0;shadow=0;strokeWidth=1;" vertex="1" parent="WIyWlLk6GJQsqaUBKTNV-1">
          <mxGeometry x="100" y="470" width="80" height="66" as="geometry">
            <mxRectangle x="130" y="380" width="160" height="26" as="alternateBounds" />
          </mxGeometry>
        </mxCell>
        <mxCell id="0geA4pOl09aKW1OKMu0l-15" value="id: serial" style="text;html=1;align=center;verticalAlign=middle;resizable=0;points=[];autosize=1;strokeColor=none;fillColor=none;" vertex="1" parent="0geA4pOl09aKW1OKMu0l-2">
          <mxGeometry y="26" width="80" height="20" as="geometry" />
        </mxCell>
        <mxCell id="0geA4pOl09aKW1OKMu0l-23" value="name: varchar" style="text;html=1;align=center;verticalAlign=middle;resizable=0;points=[];autosize=1;strokeColor=none;fillColor=none;" vertex="1" parent="0geA4pOl09aKW1OKMu0l-2">
          <mxGeometry y="46" width="80" height="20" as="geometry" />
        </mxCell>
        <mxCell id="0geA4pOl09aKW1OKMu0l-3" value="PSB_Modules" style="swimlane;fontStyle=0;align=center;verticalAlign=top;childLayout=stackLayout;horizontal=1;startSize=26;horizontalStack=0;resizeParent=1;resizeLast=0;collapsible=1;marginBottom=0;rounded=0;shadow=0;strokeWidth=1;" vertex="1" parent="WIyWlLk6GJQsqaUBKTNV-1">
          <mxGeometry x="550" y="370" width="80" height="86" as="geometry">
            <mxRectangle x="550" y="140" width="160" height="26" as="alternateBounds" />
          </mxGeometry>
        </mxCell>
        <mxCell id="0geA4pOl09aKW1OKMu0l-13" value="id: serial" style="text;html=1;align=center;verticalAlign=middle;resizable=0;points=[];autosize=1;strokeColor=none;fillColor=none;" vertex="1" parent="0geA4pOl09aKW1OKMu0l-3">
          <mxGeometry y="26" width="80" height="20" as="geometry" />
        </mxCell>
        <mxCell id="0geA4pOl09aKW1OKMu0l-17" value="PSB_id:int" style="text;html=1;align=center;verticalAlign=middle;resizable=0;points=[];autosize=1;strokeColor=none;fillColor=none;" vertex="1" parent="0geA4pOl09aKW1OKMu0l-3">
          <mxGeometry y="46" width="80" height="20" as="geometry" />
        </mxCell>
        <mxCell id="0geA4pOl09aKW1OKMu0l-18" value="Modules_id:int" style="text;html=1;align=center;verticalAlign=middle;resizable=0;points=[];autosize=1;strokeColor=none;fillColor=none;" vertex="1" parent="0geA4pOl09aKW1OKMu0l-3">
          <mxGeometry y="66" width="80" height="20" as="geometry" />
        </mxCell>
        <mxCell id="0geA4pOl09aKW1OKMu0l-4" value="Comp_to_Modules" style="swimlane;fontStyle=0;align=center;verticalAlign=top;childLayout=stackLayout;horizontal=1;startSize=26;horizontalStack=0;resizeParent=1;resizeLast=0;collapsible=1;marginBottom=0;rounded=0;shadow=0;strokeWidth=1;" vertex="1" parent="WIyWlLk6GJQsqaUBKTNV-1">
          <mxGeometry x="250" y="120" width="120" height="86" as="geometry">
            <mxRectangle x="550" y="140" width="160" height="26" as="alternateBounds" />
          </mxGeometry>
        </mxCell>
        <mxCell id="0geA4pOl09aKW1OKMu0l-14" value="id: serial" style="text;html=1;align=center;verticalAlign=middle;resizable=0;points=[];autosize=1;strokeColor=none;fillColor=none;" vertex="1" parent="0geA4pOl09aKW1OKMu0l-4">
          <mxGeometry y="26" width="120" height="20" as="geometry" />
        </mxCell>
        <mxCell id="0geA4pOl09aKW1OKMu0l-19" value="Modules_id:int" style="text;html=1;align=center;verticalAlign=middle;resizable=0;points=[];autosize=1;strokeColor=none;fillColor=none;" vertex="1" parent="0geA4pOl09aKW1OKMu0l-4">
          <mxGeometry y="46" width="120" height="20" as="geometry" />
        </mxCell>
        <mxCell id="0geA4pOl09aKW1OKMu0l-20" value="Component_id:int" style="text;html=1;align=center;verticalAlign=middle;resizable=0;points=[];autosize=1;strokeColor=none;fillColor=none;" vertex="1" parent="0geA4pOl09aKW1OKMu0l-4">
          <mxGeometry y="66" width="120" height="20" as="geometry" />
        </mxCell>
        <mxCell id="0geA4pOl09aKW1OKMu0l-26" value="" style="endArrow=classic;html=1;" edge="1" parent="WIyWlLk6GJQsqaUBKTNV-1" source="0geA4pOl09aKW1OKMu0l-18" target="0geA4pOl09aKW1OKMu0l-8">
          <mxGeometry width="50" height="50" relative="1" as="geometry">
            <mxPoint x="460" y="440" as="sourcePoint" />
            <mxPoint x="510" y="390" as="targetPoint" />
            <Array as="points">
              <mxPoint x="530" y="446" />
              <mxPoint x="530" y="286" />
            </Array>
          </mxGeometry>
        </mxCell>
        <mxCell id="0geA4pOl09aKW1OKMu0l-27" value="" style="endArrow=classic;html=1;" edge="1" parent="WIyWlLk6GJQsqaUBKTNV-1" source="0geA4pOl09aKW1OKMu0l-17" target="0geA4pOl09aKW1OKMu0l-5">
          <mxGeometry width="50" height="50" relative="1" as="geometry">
            <mxPoint x="670" y="439.1" as="sourcePoint" />
            <mxPoint x="630" y="336.71999999999997" as="targetPoint" />
            <Array as="points">
              <mxPoint x="651" y="428" />
              <mxPoint x="651" y="287" />
            </Array>
          </mxGeometry>
        </mxCell>
        <mxCell id="0geA4pOl09aKW1OKMu0l-29" value="" style="endArrow=classic;html=1;exitX=-0.011;exitY=0.55;exitDx=0;exitDy=0;exitPerimeter=0;entryX=0.995;entryY=0.508;entryDx=0;entryDy=0;entryPerimeter=0;" edge="1" parent="WIyWlLk6GJQsqaUBKTNV-1" source="0geA4pOl09aKW1OKMu0l-20" target="0geA4pOl09aKW1OKMu0l-16">
          <mxGeometry width="50" height="50" relative="1" as="geometry">
            <mxPoint x="260" y="422.38" as="sourcePoint" />
            <mxPoint x="220" y="320" as="targetPoint" />
            <Array as="points">
              <mxPoint x="241" y="197" />
              <mxPoint x="241" y="286" />
            </Array>
          </mxGeometry>
        </mxCell>
        <mxCell id="0geA4pOl09aKW1OKMu0l-30" value="" style="endArrow=classic;html=1;entryX=-0.027;entryY=0.592;entryDx=0;entryDy=0;entryPerimeter=0;exitX=0.999;exitY=0.653;exitDx=0;exitDy=0;exitPerimeter=0;" edge="1" parent="WIyWlLk6GJQsqaUBKTNV-1" source="0geA4pOl09aKW1OKMu0l-19" target="0geA4pOl09aKW1OKMu0l-8">
          <mxGeometry width="50" height="50" relative="1" as="geometry">
            <mxPoint x="430" y="438.38" as="sourcePoint" />
            <mxPoint x="390" y="336" as="targetPoint" />
            <Array as="points">
              <mxPoint x="390" y="179" />
              <mxPoint x="390" y="288" />
            </Array>
          </mxGeometry>
        </mxCell>
        <mxCell id="0geA4pOl09aKW1OKMu0l-31" value="" style="endArrow=classic;html=1;" edge="1" parent="WIyWlLk6GJQsqaUBKTNV-1" source="0geA4pOl09aKW1OKMu0l-24" target="0geA4pOl09aKW1OKMu0l-15">
          <mxGeometry width="50" height="50" relative="1" as="geometry">
            <mxPoint x="280" y="262.38" as="sourcePoint" />
            <mxPoint x="240" y="159.99999999999997" as="targetPoint" />
            <Array as="points">
              <mxPoint x="220" y="326" />
              <mxPoint x="220" y="506" />
            </Array>
          </mxGeometry>
        </mxCell>
        <mxCell id="0geA4pOl09aKW1OKMu0l-32" value="" style="endArrow=none;dashed=1;html=1;dashPattern=1 3;strokeWidth=2;fontColor=#FF3333;fillColor=#f8cecc;strokeColor=#FF3333;rounded=0;" edge="1" parent="WIyWlLk6GJQsqaUBKTNV-1">
          <mxGeometry width="50" height="50" relative="1" as="geometry">
            <mxPoint x="410" y="160" as="sourcePoint" />
            <mxPoint x="410" y="160" as="targetPoint" />
            <Array as="points">
              <mxPoint x="410" y="470" />
              <mxPoint x="790" y="470" />
              <mxPoint x="790" y="160" />
            </Array>
          </mxGeometry>
        </mxCell>
        <mxCell id="0geA4pOl09aKW1OKMu0l-33" value="&lt;font style=&quot;font-size: 18px&quot;&gt;One-to-one&lt;/font&gt;" style="text;html=1;strokeColor=#FF3333;fillColor=#f8cecc;align=center;verticalAlign=middle;whiteSpace=wrap;rounded=0;" vertex="1" parent="WIyWlLk6GJQsqaUBKTNV-1">
          <mxGeometry x="535" y="180" width="110" height="20" as="geometry" />
        </mxCell>
        <mxCell id="0geA4pOl09aKW1OKMu0l-34" value="" style="endArrow=none;dashed=1;html=1;dashPattern=1 3;strokeWidth=2;fontColor=#FF3333;fillColor=#d5e8d4;strokeColor=#00FF00;" edge="1" parent="WIyWlLk6GJQsqaUBKTNV-1">
          <mxGeometry width="50" height="50" relative="1" as="geometry">
            <mxPoint x="70" y="370" as="sourcePoint" />
            <mxPoint x="70" y="370" as="targetPoint" />
            <Array as="points">
              <mxPoint x="520" y="370" />
              <mxPoint x="520" y="80" />
              <mxPoint x="70" y="80" />
            </Array>
          </mxGeometry>
        </mxCell>
        <mxCell id="0geA4pOl09aKW1OKMu0l-35" value="Many-to-many" style="text;html=1;strokeColor=#00CC00;fillColor=#d5e8d4;align=center;verticalAlign=middle;whiteSpace=wrap;rounded=0;fontSize=16;" vertex="1" parent="WIyWlLk6GJQsqaUBKTNV-1">
          <mxGeometry x="85" y="110" width="130" height="20" as="geometry" />
        </mxCell>
        <mxCell id="0geA4pOl09aKW1OKMu0l-36" value="" style="endArrow=none;dashed=1;html=1;dashPattern=1 3;strokeWidth=3;fontSize=16;fontColor=#FF3333;fillColor=#dae8fc;strokeColor=#0000FF;" edge="1" parent="WIyWlLk6GJQsqaUBKTNV-1">
          <mxGeometry width="50" height="50" relative="1" as="geometry">
            <mxPoint x="80" y="600" as="sourcePoint" />
            <mxPoint x="80" y="600" as="targetPoint" />
            <Array as="points">
              <mxPoint x="80" y="240" />
              <mxPoint x="260" y="240" />
              <mxPoint x="260" y="600" />
            </Array>
          </mxGeometry>
        </mxCell>
        <mxCell id="0geA4pOl09aKW1OKMu0l-37" value="One-to-Many" style="text;html=1;strokeColor=#0000FF;fillColor=#dae8fc;align=center;verticalAlign=middle;whiteSpace=wrap;rounded=0;fontSize=16;" vertex="1" parent="WIyWlLk6GJQsqaUBKTNV-1">
          <mxGeometry x="105" y="560" width="110" height="20" as="geometry" />
        </mxCell>
      </root>
    </mxGraphModel>
  </diagram>
</mxfile>
